# Blender 5.2.0 LTS
# www.blender.org
mtllib ramp.mtl
o Cube
v 20.000000 0.100000 -20.000000
v 20.000000 -0.100000 -20.000000
v 20.000000 0.100000 20.000000
v 20.000000 -0.100000 20.000000
v -20.000000 0.100000 -20.000000
v -20.000000 -0.100000 -20.000000
v -20.000000 0.100000 20.000000
v -20.000000 -0.100000 20.000000
vn -0.0000 1.0000 -0.0000
vn -0.0000 -0.0000 1.0000
vn -1.0000 -0.0000 -0.0000
vn -0.0000 -1.0000 -0.0000
vn 1.0000 -0.0000 -0.0000
vn -0.0000 -0.0000 -1.0000
vt 0.625000 0.500000
vt 0.875000 0.500000
vt 0.875000 0.750000
vt 0.625000 0.750000
vt 0.375000 0.750000
vt 0.625000 1.000000
vt 0.375000 1.000000
vt 0.375000 0.000000
vt 0.625000 0.000000
vt 0.625000 0.250000
vt 0.375000 0.250000
vt 0.125000 0.500000
vt 0.375000 0.500000
vt 0.125000 0.750000
s 0
usemtl Material
f 1/1/1 5/2/1 7/3/1 3/4/1
f 4/5/2 3/4/2 7/6/2 8/7/2
f 8/8/3 7/9/3 5/10/3 6/11/3
f 6/12/4 2/13/4 4/5/4 8/14/4
f 2/13/5 1/1/5 3/4/5 4/5/5
f 6/11/6 5/10/6 1/1/6 2/13/6
o Cube.001
v 0.817966 -0.326278 5.495317
v 0.817966 0.078140 5.618630
v 0.817966 0.544653 2.638995
v 0.817966 0.949071 2.762307
v 4.112243 -0.326278 5.495317
v 4.112243 0.078140 5.618630
v 4.112243 0.544653 2.638995
v 4.112243 0.949071 2.762307
v 3.635108 0.607563 3.339595
v 3.153613 0.607563 3.339595
v 2.672119 0.607563 3.339595
v 2.190624 0.607563 3.339595
v 1.709130 0.607563 3.339596
v 1.227635 0.607563 3.339595
v 3.635108 0.328521 4.033923
v 3.153613 0.328520 4.033923
v 2.672119 0.328521 4.033923
v 2.190624 0.328520 4.033923
v 1.709130 0.328521 4.033923
v 1.227635 0.328521 4.033923
v 3.635108 0.156687 4.787313
v 3.153613 0.156687 4.787313
v 2.672119 0.156687 4.787313
v 2.190624 0.156687 4.787313
v 1.709130 0.156687 4.787313
v 1.227635 0.156687 4.787313
v 1.227635 0.931335 2.801561
v 1.709130 0.931335 2.801561
v 2.190624 0.931336 2.801561
v 2.672119 0.931335 2.801561
v 3.153613 0.931335 2.801561
v 3.635108 0.931335 2.801561
v 1.227635 0.880899 2.873780
v 1.709130 0.880899 2.873780
v 2.190624 0.880899 2.873780
v 2.672119 0.880899 2.873780
v 3.153613 0.880899 2.873780
v 3.635108 0.880899 2.873780
v 1.227635 0.831810 2.947624
v 1.709130 0.831810 2.947624
v 2.190624 0.831810 2.947623
v 2.672119 0.831810 2.947624
v 3.153613 0.831810 2.947623
v 3.635108 0.831810 2.947624
v 1.227635 0.784096 3.023045
v 1.709130 0.784096 3.023045
v 2.190624 0.784096 3.023045
v 2.672119 0.784096 3.023045
v 3.153613 0.784096 3.023045
v 3.635108 0.784096 3.023045
v 1.227635 0.737786 3.099999
v 1.709130 0.737786 3.099999
v 2.190624 0.737786 3.099999
v 2.672119 0.737786 3.099999
v 3.153613 0.737786 3.099999
v 3.635108 0.737786 3.099999
v 1.227635 0.692908 3.178439
v 1.709130 0.692908 3.178440
v 2.190624 0.692908 3.178439
v 2.672119 0.692908 3.178440
v 3.153613 0.692908 3.178439
v 3.635108 0.692908 3.178440
v 1.227635 0.649491 3.258320
v 1.709130 0.649491 3.258320
v 2.190624 0.649491 3.258321
v 2.672119 0.649491 3.258320
v 3.153613 0.649491 3.258321
v 3.635108 0.649491 3.258320
v 1.227635 0.567151 3.422218
v 1.709130 0.567151 3.422218
v 2.190624 0.567151 3.422218
v 2.672119 0.567150 3.422218
v 3.153613 0.567151 3.422218
v 3.635108 0.567150 3.422217
v 1.227635 0.528277 3.506136
v 1.709130 0.528277 3.506136
v 2.190624 0.528277 3.506136
v 2.672119 0.528277 3.506136
v 3.153613 0.528277 3.506136
v 3.635108 0.528277 3.506136
v 1.227635 0.490963 3.591298
v 1.709130 0.490962 3.591297
v 2.190624 0.490962 3.591298
v 2.672119 0.490962 3.591297
v 3.153613 0.490962 3.591298
v 3.635108 0.490962 3.591297
v 1.227635 0.455228 3.677650
v 1.709130 0.455228 3.677650
v 2.190624 0.455228 3.677650
v 2.672119 0.455228 3.677650
v 3.153613 0.455228 3.677650
v 3.635108 0.455228 3.677650
v 1.227635 0.421097 3.765142
v 1.709130 0.421096 3.765142
v 2.190624 0.421096 3.765142
v 2.672119 0.421096 3.765142
v 3.153613 0.421096 3.765142
v 3.635108 0.421096 3.765142
v 1.227635 0.388587 3.853719
v 1.709130 0.388587 3.853719
v 2.190624 0.388587 3.853719
v 2.672119 0.388587 3.853719
v 3.153613 0.388587 3.853719
v 3.635108 0.388587 3.853719
v 1.227635 0.357721 3.943331
v 1.709130 0.357722 3.943331
v 2.190624 0.357721 3.943331
v 2.672119 0.357722 3.943331
v 3.153613 0.357721 3.943331
v 3.635108 0.357721 3.943331
v 1.227635 0.301004 4.125444
v 1.709130 0.301005 4.125444
v 2.190624 0.301005 4.125443
v 2.672119 0.301005 4.125444
v 3.153613 0.301005 4.125443
v 3.635108 0.301004 4.125444
v 1.227635 0.275187 4.217836
v 1.709130 0.275187 4.217836
v 2.190624 0.275188 4.217836
v 2.672119 0.275187 4.217836
v 3.153613 0.275188 4.217836
v 3.635108 0.275187 4.217836
v 1.227635 0.251082 4.311044
v 1.709130 0.251082 4.311044
v 2.190624 0.251082 4.311044
v 2.672119 0.251082 4.311044
v 3.153613 0.251082 4.311044
v 3.635108 0.251082 4.311044
v 1.227635 0.228701 4.405009
v 1.709130 0.228701 4.405009
v 2.190624 0.228701 4.405009
v 2.672119 0.228701 4.405009
v 3.153613 0.228701 4.405009
v 3.635108 0.228701 4.405009
v 1.227635 0.208058 4.499676
v 1.709130 0.208058 4.499676
v 2.190624 0.208058 4.499676
v 2.672119 0.208058 4.499676
v 3.153613 0.208058 4.499676
v 3.635108 0.208058 4.499676
v 1.227635 0.189167 4.594986
v 1.709130 0.189166 4.594986
v 2.190624 0.189166 4.594986
v 2.672119 0.189166 4.594986
v 3.153613 0.189166 4.594986
v 3.635108 0.189167 4.594986
v 1.227635 0.172038 4.690885
v 1.709130 0.172038 4.690885
v 2.190624 0.172038 4.690885
v 2.672119 0.172038 4.690885
v 3.153613 0.172038 4.690885
v 3.635108 0.172038 4.690885
v 1.227635 0.143124 4.884215
v 1.709130 0.143124 4.884215
v 2.190624 0.143124 4.884215
v 2.672119 0.143124 4.884215
v 3.153613 0.143124 4.884215
v 3.635108 0.143124 4.884215
v 1.227635 0.131355 4.981531
v 1.709130 0.131356 4.981531
v 2.190624 0.131356 4.981531
v 2.672119 0.131356 4.981531
v 3.153613 0.131356 4.981531
v 3.635108 0.131356 4.981531
v 1.227635 0.121385 5.079202
v 1.709130 0.121385 5.079202
v 2.190624 0.121385 5.079202
v 2.672119 0.121385 5.079202
v 3.153613 0.121385 5.079202
v 3.635108 0.121385 5.079202
v 1.227635 0.113218 5.177169
v 1.709130 0.113218 5.177169
v 2.190624 0.113218 5.177169
v 2.672119 0.113218 5.177169
v 3.153613 0.113218 5.177169
v 3.635108 0.113218 5.177169
v 1.227635 0.106858 5.275373
v 1.709130 0.106858 5.275373
v 2.190624 0.106858 5.275373
v 2.672119 0.106858 5.275373
v 3.153613 0.106858 5.275373
v 3.635108 0.106858 5.275373
v 1.227635 0.102310 5.373754
v 1.709130 0.102310 5.373754
v 2.190624 0.102310 5.373754
v 2.672119 0.102310 5.373754
v 3.153613 0.102310 5.373754
v 3.635108 0.102310 5.373754
v 1.227635 0.099578 5.472254
v 1.709130 0.099578 5.472254
v 2.190624 0.099577 5.472254
v 2.672119 0.099578 5.472254
v 3.153613 0.099577 5.472254
v 3.635108 0.099577 5.472254
v 0.817966 0.098852 5.550702
v 0.817966 0.102310 5.373754
v 0.817966 0.106858 5.275373
v 0.817966 0.099578 5.472254
v 0.817966 0.113218 5.177169
v 0.817966 0.143124 4.884215
v 0.817966 0.131355 4.981531
v 0.817966 0.121385 5.079202
v 0.817966 0.172038 4.690885
v 0.817966 0.208058 4.499676
v 0.817966 0.189166 4.594986
v 0.817966 0.251082 4.311044
v 0.817966 0.941204 2.788108
v 0.817966 0.931335 2.801561
v 0.817966 0.275187 4.217836
v 0.817966 0.228701 4.405009
v 0.817966 0.156687 4.787313
v 0.817966 0.301004 4.125444
v 0.817966 0.357721 3.943331
v 0.817966 0.328520 4.033923
v 0.817966 0.421096 3.765142
v 0.817966 0.528277 3.506136
v 0.817966 0.490962 3.591298
v 0.817966 0.455228 3.677650
v 0.817966 0.388587 3.853719
v 0.817966 0.607562 3.339595
v 0.817966 0.692908 3.178439
v 0.817966 0.649491 3.258320
v 0.817966 0.831810 2.947623
v 0.817966 0.784096 3.023045
v 0.817966 0.880899 2.873780
v 0.817966 0.567151 3.422217
v 0.817966 0.737786 3.099999
v 4.112243 0.098852 5.550702
v 4.112243 0.357721 3.943331
v 4.112243 0.328521 4.033923
v 4.112243 0.455228 3.677650
v 4.112243 0.421097 3.765142
v 4.112243 0.528277 3.506136
v 4.112243 0.490963 3.591298
v 4.112243 0.388587 3.853719
v 4.112243 0.649491 3.258320
v 4.112243 0.607563 3.339595
v 4.112243 0.737786 3.099999
v 4.112243 0.692908 3.178439
v 4.112243 0.880899 2.873780
v 4.112243 0.831810 2.947624
v 4.112243 0.931335 2.801561
v 4.112243 0.941204 2.788108
v 4.112243 0.784096 3.023046
v 4.112243 0.567151 3.422217
v 4.112243 0.099578 5.472254
v 4.112243 0.102310 5.373754
v 4.112243 0.106858 5.275373
v 4.112243 0.113218 5.177169
v 4.112243 0.143124 4.884215
v 4.112243 0.131356 4.981531
v 4.112243 0.121385 5.079202
v 4.112243 0.172038 4.690885
v 4.112243 0.208058 4.499676
v 4.112243 0.189166 4.594986
v 4.112243 0.251082 4.311044
v 4.112243 0.301004 4.125444
v 4.112243 0.275187 4.217836
v 4.112243 0.228701 4.405009
v 4.112243 0.156687 4.787313
v 1.709130 0.941204 2.788108
v 1.227635 0.941204 2.788108
v 3.635108 0.941204 2.788108
v 3.153613 0.941204 2.788108
v 2.672119 0.941204 2.788108
v 2.190624 0.941204 2.788108
v 1.227635 0.098852 5.550702
v 2.190624 0.098852 5.550701
v 1.709130 0.098852 5.550701
v 3.153613 0.098852 5.550701
v 3.635108 0.098852 5.550703
v 2.672119 0.098852 5.550702
vn -1.0000 -0.0000 -0.0000
vn -0.0000 0.2917 -0.9565
vn 1.0000 -0.0000 -0.0000
vn -0.0000 -0.2917 0.9565
vn -0.0000 -0.9565 -0.2917
vn -0.0000 0.9565 0.2917
vn -0.0000 0.8199 0.5726
vn -0.0000 0.8328 0.5536
vn -0.0000 0.8451 0.5346
vn -0.0000 0.8568 0.5156
vn -0.0000 0.8680 0.4966
vn -0.0000 0.8786 0.4775
vn -0.0000 0.8063 0.5915
vn -0.0000 0.8887 0.4585
vn -0.0000 0.9074 0.4203
vn -0.0000 0.9159 0.4013
vn -0.0000 0.9240 0.3824
vn -0.0000 0.9316 0.3634
vn -0.0000 0.9388 0.3445
vn -0.0000 0.9455 0.3257
vn -0.0000 0.8983 0.4394
vn -0.0000 0.9518 0.3068
vn -0.0000 0.9631 0.2691
vn -0.0000 0.9681 0.2504
vn -0.0000 0.9728 0.2317
vn -0.0000 0.9770 0.2131
vn -0.0000 0.9809 0.1944
vn -0.0000 0.9844 0.1758
vn -0.0000 0.9577 0.2879
vn -0.0000 0.9876 0.1572
vn -0.0000 0.9928 0.1201
vn -0.0000 0.9948 0.1016
vn -0.0000 0.9965 0.0831
vn -0.0000 0.9979 0.0646
vn -0.0000 0.9989 0.0462
vn -0.0000 0.9996 0.0277
vn -0.0000 0.9903 0.1386
vn -0.0000 1.0000 0.0093
vn -0.0000 1.0000 0.0092
vn -0.0000 0.9948 0.1015
vt 0.625000 0.247742
vt 0.625000 0.250000
vt 0.375000 0.250000
vt 0.375000 0.000000
vt 0.625000 0.000000
vt 0.625000 0.005945
vt 0.611882 0.012245
vt 0.596440 0.020200
vt 0.582046 0.028189
vt 0.568708 0.036209
vt 0.556432 0.044253
vt 0.545227 0.052318
vt 0.535100 0.060399
vt 0.526060 0.068490
vt 0.518113 0.076587
vt 0.511262 0.084684
vt 0.505511 0.092778
vt 0.500860 0.100863
vt 0.497313 0.108934
vt 0.494873 0.116987
vt 0.493541 0.125016
vt 0.493321 0.133017
vt 0.494213 0.140984
vt 0.496217 0.148914
vt 0.499328 0.156801
vt 0.503544 0.164641
vt 0.508863 0.172429
vt 0.515281 0.180160
vt 0.522795 0.187829
vt 0.531403 0.195432
vt 0.541101 0.202964
vt 0.551881 0.210421
vt 0.563736 0.217799
vt 0.576658 0.225092
vt 0.590637 0.232297
vt 0.605667 0.239409
vt 0.621738 0.246424
vt 0.625000 0.500000
vt 0.375000 0.500000
vt 0.625000 0.744055
vt 0.625000 0.750000
vt 0.375000 0.750000
vt 0.625000 0.502258
vt 0.621738 0.503577
vt 0.605667 0.510591
vt 0.590637 0.517703
vt 0.576658 0.524908
vt 0.563736 0.532201
vt 0.551882 0.539579
vt 0.541101 0.547036
vt 0.531403 0.554568
vt 0.522795 0.562171
vt 0.515281 0.569840
vt 0.508863 0.577571
vt 0.503544 0.585359
vt 0.499328 0.593199
vt 0.496217 0.601086
vt 0.494213 0.609016
vt 0.493321 0.616983
vt 0.493541 0.624984
vt 0.494873 0.633013
vt 0.497314 0.641066
vt 0.500860 0.649137
vt 0.505510 0.657222
vt 0.511262 0.665316
vt 0.518113 0.673413
vt 0.526060 0.681510
vt 0.535101 0.689601
vt 0.545227 0.697682
vt 0.556432 0.705747
vt 0.568707 0.713791
vt 0.582046 0.721811
vt 0.596440 0.729800
vt 0.611882 0.737755
vt 0.625000 1.000000
vt 0.375000 1.000000
vt 0.125000 0.500000
vt 0.125000 0.750000
vt 0.875000 0.744055
vt 0.875000 0.750000
vt 0.625000 0.744055
vt 0.661209 0.744055
vt 0.697750 0.744055
vt 0.734290 0.744055
vt 0.770830 0.744055
vt 0.807370 0.744054
vt 0.843911 0.744055
vt 0.625000 0.502258
vt 0.875000 0.500000
vt 0.875000 0.502258
vt 0.843911 0.502258
vt 0.807370 0.502258
vt 0.770830 0.502258
vt 0.734290 0.502258
vt 0.697750 0.502258
vt 0.661209 0.502258
vt 0.871094 0.562500
vt 0.867188 0.562500
vt 0.867188 0.625000
vt 0.871094 0.625000
vt 0.867188 0.687500
vt 0.871094 0.687500
vt 0.867188 0.750000
vt 0.871094 0.750000
vt 0.867188 0.812500
vt 0.871094 0.812500
vt 0.867188 0.875000
vt 0.871094 0.875000
vt 0.867188 0.936934
vt 0.871094 0.936934
vt 0.863281 0.562500
vt 0.863281 0.625000
vt 0.863281 0.687500
vt 0.863281 0.750000
vt 0.863281 0.812500
vt 0.863281 0.875000
vt 0.863281 0.936934
vt 0.859375 0.562500
vt 0.859375 0.625000
vt 0.859375 0.687500
vt 0.859375 0.750000
vt 0.859375 0.812500
vt 0.859375 0.875000
vt 0.859375 0.936934
vt 0.855469 0.562500
vt 0.855469 0.625000
vt 0.855469 0.687500
vt 0.855469 0.750000
vt 0.855469 0.812500
vt 0.855469 0.875000
vt 0.855469 0.936934
vt 0.851562 0.562500
vt 0.851563 0.625000
vt 0.851562 0.687500
vt 0.851563 0.750000
vt 0.851562 0.812500
vt 0.851562 0.875000
vt 0.851563 0.936934
vt 0.847656 0.562500
vt 0.847656 0.625000
vt 0.847656 0.687500
vt 0.847656 0.750000
vt 0.847656 0.812500
vt 0.847656 0.875000
vt 0.847656 0.936934
vt 0.851562 0.936934
vt 0.871839 0.509323
vt 0.871094 0.509323
vt 0.871839 0.562500
vt 0.871839 0.562500
vt 0.871839 0.625000
vt 0.871839 0.625000
vt 0.871839 0.687500
vt 0.871839 0.750000
vt 0.871839 0.750000
vt 0.871839 0.812500
vt 0.871839 0.875000
vt 0.871839 0.875000
vt 0.871839 0.936934
vt 0.843750 0.875000
vt 0.843750 0.936934
vt 0.843750 0.812500
vt 0.843750 0.750000
vt 0.843750 0.687500
vt 0.843750 0.625000
vt 0.843750 0.562500
vt 0.843750 0.509323
vt 0.847656 0.509323
vt 0.851562 0.509323
vt 0.851563 0.509323
vt 0.855469 0.509323
vt 0.859375 0.509323
vt 0.859375 0.509323
vt 0.863281 0.509323
vt 0.863281 0.509323
vt 0.867188 0.509323
vt 0.839844 0.562500
vt 0.835938 0.562500
vt 0.835938 0.625000
vt 0.839844 0.625000
vt 0.835938 0.687500
vt 0.839844 0.687500
vt 0.835938 0.750000
vt 0.839844 0.750000
vt 0.835938 0.812500
vt 0.839844 0.812500
vt 0.835938 0.875000
vt 0.839844 0.875000
vt 0.835938 0.936934
vt 0.839844 0.936934
vt 0.832031 0.562500
vt 0.832031 0.625000
vt 0.832031 0.687500
vt 0.832031 0.750000
vt 0.832031 0.812500
vt 0.832031 0.875000
vt 0.832031 0.936934
vt 0.828125 0.562500
vt 0.828125 0.625000
vt 0.828125 0.687500
vt 0.828125 0.750000
vt 0.828125 0.812500
vt 0.828125 0.875000
vt 0.828125 0.936934
vt 0.824219 0.562500
vt 0.824219 0.625000
vt 0.824219 0.687500
vt 0.824219 0.750000
vt 0.824219 0.812500
vt 0.824219 0.875000
vt 0.824219 0.936934
vt 0.820313 0.562500
vt 0.820312 0.625000
vt 0.820313 0.687500
vt 0.820312 0.750000
vt 0.820313 0.812500
vt 0.820313 0.875000
vt 0.820313 0.936934
vt 0.824219 0.936934
vt 0.816406 0.562500
vt 0.816406 0.625000
vt 0.816406 0.687500
vt 0.816406 0.750000
vt 0.816406 0.812500
vt 0.816406 0.875000
vt 0.816406 0.936934
vt 0.820313 0.936934
vt 0.839844 0.509323
vt 0.812500 0.875000
vt 0.812500 0.936934
vt 0.812500 0.812500
vt 0.812500 0.750000
vt 0.812500 0.687500
vt 0.812500 0.625000
vt 0.812500 0.562500
vt 0.812500 0.509323
vt 0.816406 0.509323
vt 0.816406 0.509323
vt 0.820313 0.509323
vt 0.820313 0.509323
vt 0.824219 0.509323
vt 0.824219 0.509323
vt 0.828125 0.509323
vt 0.832031 0.509323
vt 0.835938 0.509323
vt 0.808594 0.562500
vt 0.804688 0.562500
vt 0.804688 0.625000
vt 0.808594 0.625000
vt 0.804688 0.687500
vt 0.808594 0.687500
vt 0.804688 0.750000
vt 0.808594 0.750000
vt 0.804688 0.812500
vt 0.808594 0.812500
vt 0.804688 0.875000
vt 0.808594 0.875000
vt 0.804688 0.936934
vt 0.808594 0.936934
vt 0.800781 0.562500
vt 0.800781 0.625000
vt 0.800781 0.687500
vt 0.800781 0.750000
vt 0.800781 0.812500
vt 0.800781 0.875000
vt 0.800781 0.936934
vt 0.796875 0.562500
vt 0.796875 0.625000
vt 0.796875 0.687500
vt 0.796875 0.750000
vt 0.796875 0.812500
vt 0.796875 0.875000
vt 0.796875 0.936934
vt 0.792969 0.562500
vt 0.792969 0.625000
vt 0.792969 0.687500
vt 0.792969 0.750000
vt 0.792969 0.812500
vt 0.792969 0.875000
vt 0.792969 0.936934
vt 0.789063 0.562500
vt 0.789063 0.625000
vt 0.789063 0.687500
vt 0.789063 0.750000
vt 0.789063 0.812500
vt 0.789063 0.875000
vt 0.789063 0.936934
vt 0.785156 0.562500
vt 0.785156 0.625000
vt 0.785156 0.687500
vt 0.785156 0.750000
vt 0.785156 0.812500
vt 0.785156 0.875000
vt 0.785156 0.936934
vt 0.808594 0.509323
vt 0.781250 0.875000
vt 0.781250 0.936934
vt 0.781250 0.812500
vt 0.781250 0.750000
vt 0.781250 0.687500
vt 0.781250 0.625000
vt 0.781250 0.562500
vt 0.781250 0.509323
vt 0.785156 0.509323
vt 0.789063 0.509323
vt 0.792969 0.509323
vt 0.792969 0.509323
vt 0.796875 0.509323
vt 0.800781 0.509323
vt 0.800781 0.509323
vt 0.804688 0.509323
vt 0.777344 0.562500
vt 0.773438 0.562500
vt 0.773438 0.625000
vt 0.777344 0.625000
vt 0.773438 0.687500
vt 0.777344 0.687500
vt 0.773438 0.750000
vt 0.777344 0.750000
vt 0.773438 0.812500
vt 0.777344 0.812500
vt 0.773438 0.875000
vt 0.777344 0.875000
vt 0.773438 0.936934
vt 0.777344 0.936934
vt 0.769531 0.562500
vt 0.769531 0.625000
vt 0.769531 0.687500
vt 0.769531 0.750000
vt 0.769531 0.812500
vt 0.769531 0.875000
vt 0.769531 0.936934
vt 0.765625 0.562500
vt 0.765625 0.625000
vt 0.765625 0.687500
vt 0.765625 0.750000
vt 0.765625 0.812500
vt 0.765625 0.875000
vt 0.765625 0.936934
vt 0.761719 0.562500
vt 0.761719 0.625000
vt 0.761719 0.687500
vt 0.761719 0.750000
vt 0.761719 0.812500
vt 0.761719 0.875000
vt 0.761719 0.936934
vt 0.757813 0.562500
vt 0.757813 0.625000
vt 0.757813 0.687500
vt 0.757813 0.750000
vt 0.757813 0.812500
vt 0.757813 0.875000
vt 0.757813 0.936934
vt 0.753906 0.562500
vt 0.753906 0.625000
vt 0.753906 0.687500
vt 0.753906 0.750000
vt 0.753906 0.812500
vt 0.753906 0.875000
vt 0.753906 0.936934
vt 0.777344 0.509323
vt 0.750797 0.936934
vt 0.750797 0.875000
vt 0.750797 0.812500
vt 0.750797 0.750000
vt 0.750797 0.750000
vt 0.750797 0.687500
vt 0.750797 0.625000
vt 0.750797 0.562500
vt 0.753906 0.509323
vt 0.750797 0.509323
vt 0.757813 0.509323
vt 0.761719 0.509323
vt 0.761719 0.509323
vt 0.765625 0.509323
vt 0.769531 0.509323
vt 0.773438 0.509323
s 0
usemtl 
f 215/15/7 12/16/7 11/17/7 9/18/7 10/19/7 203/20/7 206/21/7 204/22/7 205/23/7 207/24/7 210/25/7 209/26/7 208/27/7 219/28/7 211/29/7 213/30/7 212/31/7 218/32/7 214/33/7 217/34/7 220/35/7 222/36/7 221/37/7 227/38/7 223/39/7 226/40/7 225/41/7 224/42/7 234/43/7 228/44/7 230/45/7 229/46/7 235/47/7 232/48/7 231/49/7 233/50/7 216/51/7
f 11/17/8 12/16/8 16/52/8 15/53/8
f 236/54/9 14/55/9 13/56/9 15/53/9 16/52/9 251/57/9 250/58/9 248/59/9 249/60/9 252/61/9 246/62/9 247/63/9 244/64/9 245/65/9 253/66/9 241/67/9 242/68/9 239/69/9 240/70/9 243/71/9 237/72/9 238/73/9 265/74/9 266/75/9 264/76/9 267/77/9 262/78/9 263/79/9 261/80/9 268/81/9 258/82/9 259/83/9 260/84/9 257/85/9 256/86/9 255/87/9 254/88/9
f 13/56/10 14/55/10 10/89/10 9/90/10
f 11/91/11 15/53/11 13/56/11 9/92/11
f 203/93/12 10/94/12 14/55/12 236/95/12 279/96/12 278/97/12 280/98/12 276/99/12 277/100/12 275/101/12
f 251/102/12 16/52/12 12/103/12 215/104/12 270/105/12 269/106/12 274/107/12 273/108/12 272/109/12 271/110/12
f 35/111/13 41/112/13 42/113/13 36/114/13
f 36/114/13 42/113/13 43/115/13 37/116/13
f 37/116/13 43/115/13 44/117/13 38/118/13
f 38/118/13 44/117/13 45/119/13 39/120/13
f 39/120/13 45/119/13 46/121/13 40/122/13
f 40/122/13 46/121/13 248/123/13 250/124/13
f 41/112/14 47/125/14 48/126/14 42/113/14
f 42/113/14 48/126/14 49/127/14 43/115/14
f 43/115/14 49/127/14 50/128/14 44/117/14
f 44/117/14 50/128/14 51/129/14 45/119/14
f 45/119/14 51/129/14 52/130/14 46/121/14
f 46/121/14 52/130/14 249/131/14 248/123/14
f 47/125/15 53/132/15 54/133/15 48/126/15
f 48/126/15 54/133/15 55/134/15 49/127/15
f 49/127/15 55/134/15 56/135/15 50/128/15
f 50/128/15 56/135/15 57/136/15 51/129/15
f 51/129/15 57/136/15 58/137/15 52/130/15
f 52/130/15 58/137/15 252/138/15 249/131/15
f 53/132/16 59/139/16 60/140/16 54/133/16
f 54/133/16 60/140/16 61/141/16 55/134/16
f 55/134/16 61/141/16 62/142/16 56/135/16
f 56/135/16 62/142/16 63/143/16 57/136/16
f 57/136/16 63/143/16 64/144/16 58/137/16
f 58/137/16 64/144/16 246/145/16 252/138/16
f 59/139/17 65/146/17 66/147/17 60/140/17
f 60/140/17 66/147/17 67/148/17 61/141/17
f 61/141/17 67/148/17 68/149/17 62/142/17
f 62/142/17 68/149/17 69/150/17 63/143/17
f 63/143/17 69/150/17 70/151/17 64/144/17
f 64/144/17 70/151/17 247/152/17 246/145/17
f 65/146/18 71/153/18 72/154/18 66/147/18
f 66/147/18 72/154/18 73/155/18 67/148/18
f 67/148/18 73/155/18 74/156/18 68/149/18
f 68/149/18 74/156/18 75/157/18 69/150/18
f 69/150/18 75/157/18 76/158/18 70/151/18
f 70/151/18 76/158/18 244/159/18 247/160/18
f 215/161/19 216/162/19 35/111/19 270/163/19
f 270/164/19 35/111/19 36/114/19 269/165/19
f 269/166/19 36/114/19 37/116/19 274/167/19
f 37/116/19 38/118/19 273/168/19 274/167/19
f 273/169/19 38/118/19 39/120/19 272/170/19
f 272/170/19 39/120/19 40/122/19 271/171/19
f 271/172/19 40/122/19 250/124/19 251/173/19
f 76/158/20 17/174/20 245/175/20 244/159/20
f 75/157/20 18/176/20 17/174/20 76/158/20
f 74/156/20 19/177/20 18/176/20 75/157/20
f 73/155/20 20/178/20 19/177/20 74/156/20
f 72/154/20 21/179/20 20/178/20 73/155/20
f 71/153/20 22/180/20 21/179/20 72/154/20
f 228/181/20 22/180/20 71/153/20 230/182/20
f 230/182/18 71/153/18 65/146/18 229/183/18
f 229/184/17 65/146/17 59/139/17 235/185/17
f 235/185/16 59/139/16 53/132/16 232/186/16
f 232/187/15 53/132/15 47/125/15 231/188/15
f 231/189/14 47/125/14 41/112/14 233/190/14
f 233/190/13 41/112/13 35/111/13 216/162/13
f 77/191/21 83/192/21 84/193/21 78/194/21
f 78/194/21 84/193/21 85/195/21 79/196/21
f 79/196/21 85/195/21 86/197/21 80/198/21
f 80/198/21 86/197/21 87/199/21 81/200/21
f 81/200/21 87/199/21 88/201/21 82/202/21
f 82/202/21 88/201/21 241/203/21 253/204/21
f 83/192/22 89/205/22 90/206/22 84/193/22
f 84/193/22 90/206/22 91/207/22 85/195/22
f 85/195/22 91/207/22 92/208/22 86/197/22
f 86/197/22 92/208/22 93/209/22 87/199/22
f 87/199/22 93/209/22 94/210/22 88/201/22
f 88/201/22 94/210/22 242/211/22 241/203/22
f 89/205/23 95/212/23 96/213/23 90/206/23
f 90/206/23 96/213/23 97/214/23 91/207/23
f 91/207/23 97/214/23 98/215/23 92/208/23
f 92/208/23 98/215/23 99/216/23 93/209/23
f 93/209/23 99/216/23 100/217/23 94/210/23
f 94/210/23 100/217/23 239/218/23 242/211/23
f 95/212/24 101/219/24 102/220/24 96/213/24
f 96/213/24 102/220/24 103/221/24 97/214/24
f 97/214/24 103/221/24 104/222/24 98/215/24
f 98/215/24 104/222/24 105/223/24 99/216/24
f 99/216/24 105/223/24 106/224/24 100/217/24
f 100/217/24 106/224/24 240/225/24 239/218/24
f 101/219/25 107/226/25 108/227/25 102/220/25
f 102/220/25 108/227/25 109/228/25 103/221/25
f 103/221/25 109/228/25 110/229/25 104/222/25
f 104/222/25 110/229/25 111/230/25 105/223/25
f 105/223/25 111/230/25 112/231/25 106/224/25
f 106/224/25 112/231/25 243/232/25 240/233/25
f 107/226/26 113/234/26 114/235/26 108/227/26
f 108/227/26 114/235/26 115/236/26 109/228/26
f 109/228/26 115/236/26 116/237/26 110/229/26
f 110/229/26 116/237/26 117/238/26 111/230/26
f 111/230/26 117/238/26 118/239/26 112/231/26
f 112/231/26 118/239/26 237/240/26 243/241/26
f 234/242/27 77/191/27 22/180/27 228/181/27
f 22/180/27 77/191/27 78/194/27 21/179/27
f 21/179/27 78/194/27 79/196/27 20/178/27
f 20/178/27 79/196/27 80/198/27 19/177/27
f 19/177/27 80/198/27 81/200/27 18/176/27
f 18/176/27 81/200/27 82/202/27 17/174/27
f 17/174/27 82/202/27 253/204/27 245/175/27
f 118/239/28 23/243/28 238/244/28 237/240/28
f 117/238/28 24/245/28 23/243/28 118/239/28
f 116/237/28 25/246/28 24/245/28 117/238/28
f 115/236/28 26/247/28 25/246/28 116/237/28
f 114/235/28 27/248/28 26/247/28 115/236/28
f 113/234/28 28/249/28 27/248/28 114/235/28
f 222/250/28 28/249/28 113/234/28 221/251/28
f 221/252/26 113/234/26 107/226/26 227/253/26
f 227/254/25 107/226/25 101/219/25 223/255/25
f 223/256/24 101/219/24 95/212/24 226/257/24
f 226/257/23 95/212/23 89/205/23 225/258/23
f 225/258/22 89/205/22 83/192/22 224/259/22
f 224/259/21 83/192/21 77/191/21 234/242/21
f 119/260/29 125/261/29 126/262/29 120/263/29
f 120/263/29 126/262/29 127/264/29 121/265/29
f 121/265/29 127/264/29 128/266/29 122/267/29
f 122/267/29 128/266/29 129/268/29 123/269/29
f 123/269/29 129/268/29 130/270/29 124/271/29
f 124/271/29 130/270/29 266/272/29 265/273/29
f 125/261/30 131/274/30 132/275/30 126/262/30
f 126/262/30 132/275/30 133/276/30 127/264/30
f 127/264/30 133/276/30 134/277/30 128/266/30
f 128/266/30 134/277/30 135/278/30 129/268/30
f 129/268/30 135/278/30 136/279/30 130/270/30
f 130/270/30 136/279/30 264/280/30 266/272/30
f 131/274/31 137/281/31 138/282/31 132/275/31
f 132/275/31 138/282/31 139/283/31 133/276/31
f 133/276/31 139/283/31 140/284/31 134/277/31
f 134/277/31 140/284/31 141/285/31 135/278/31
f 135/278/31 141/285/31 142/286/31 136/279/31
f 136/279/31 142/286/31 267/287/31 264/280/31
f 137/281/32 143/288/32 144/289/32 138/282/32
f 138/282/32 144/289/32 145/290/32 139/283/32
f 139/283/32 145/290/32 146/291/32 140/284/32
f 140/284/32 146/291/32 147/292/32 141/285/32
f 141/285/32 147/292/32 148/293/32 142/286/32
f 142/286/32 148/293/32 262/294/32 267/287/32
f 143/288/33 149/295/33 150/296/33 144/289/33
f 144/289/33 150/296/33 151/297/33 145/290/33
f 145/290/33 151/297/33 152/298/33 146/291/33
f 146/291/33 152/298/33 153/299/33 147/292/33
f 147/292/33 153/299/33 154/300/33 148/293/33
f 148/293/33 154/300/33 263/301/33 262/294/33
f 149/295/34 155/302/34 156/303/34 150/296/34
f 150/296/34 156/303/34 157/304/34 151/297/34
f 151/297/34 157/304/34 158/305/34 152/298/34
f 152/298/34 158/305/34 159/306/34 153/299/34
f 153/299/34 159/306/34 160/307/34 154/300/34
f 154/300/34 160/307/34 261/308/34 263/301/34
f 220/309/35 119/260/35 28/249/35 222/250/35
f 28/249/35 119/260/35 120/263/35 27/248/35
f 27/248/35 120/263/35 121/265/35 26/247/35
f 26/247/35 121/265/35 122/267/35 25/246/35
f 25/246/35 122/267/35 123/269/35 24/245/35
f 24/245/35 123/269/35 124/271/35 23/243/35
f 23/243/35 124/271/35 265/273/35 238/244/35
f 160/307/36 29/310/36 268/311/36 261/308/36
f 159/306/36 30/312/36 29/310/36 160/307/36
f 158/305/36 31/313/36 30/312/36 159/306/36
f 157/304/36 32/314/36 31/313/36 158/305/36
f 156/303/36 33/315/36 32/314/36 157/304/36
f 155/302/36 34/316/36 33/315/36 156/303/36
f 219/317/36 34/316/36 155/302/36 211/318/36
f 211/318/34 155/302/34 149/295/34 213/319/34
f 213/319/33 149/295/33 143/288/33 212/320/33
f 212/321/32 143/288/32 137/281/32 218/322/32
f 218/322/31 137/281/31 131/274/31 214/323/31
f 214/324/30 131/274/30 125/261/30 217/325/30
f 125/261/29 119/260/29 220/309/29 217/325/29
f 161/326/37 167/327/37 168/328/37 162/329/37
f 162/329/37 168/328/37 169/330/37 163/331/37
f 163/331/37 169/330/37 170/332/37 164/333/37
f 164/333/37 170/332/37 171/334/37 165/335/37
f 165/335/37 171/334/37 172/336/37 166/337/37
f 166/337/37 172/336/37 259/338/37 258/339/37
f 167/327/38 173/340/38 174/341/38 168/328/38
f 168/328/38 174/341/38 175/342/38 169/330/38
f 169/330/38 175/342/38 176/343/38 170/332/38
f 170/332/38 176/343/38 177/344/38 171/334/38
f 171/334/38 177/344/38 178/345/38 172/336/38
f 172/336/38 178/345/38 260/346/38 259/338/38
f 173/340/39 179/347/39 180/348/39 174/341/39
f 174/341/39 180/348/39 181/349/39 175/342/39
f 175/342/39 181/349/39 182/350/39 176/343/39
f 176/343/39 182/350/39 183/351/39 177/344/39
f 177/344/39 183/351/39 184/352/39 178/345/39
f 178/345/39 184/352/39 257/353/39 260/346/39
f 179/347/40 185/354/40 186/355/40 180/348/40
f 180/348/40 186/355/40 187/356/40 181/349/40
f 181/349/40 187/356/40 188/357/40 182/350/40
f 182/350/40 188/357/40 189/358/40 183/351/40
f 183/351/40 189/358/40 190/359/40 184/352/40
f 184/352/40 190/359/40 256/360/40 257/353/40
f 185/354/41 191/361/41 192/362/41 186/355/41
f 186/355/41 192/362/41 193/363/41 187/356/41
f 187/356/41 193/363/41 194/364/41 188/357/41
f 188/357/41 194/364/41 195/365/41 189/358/41
f 189/358/41 195/365/41 196/366/41 190/359/41
f 190/359/41 196/366/41 255/367/41 256/360/41
f 191/361/42 197/368/42 198/369/42 192/362/42
f 192/362/42 198/369/42 199/370/42 193/363/42
f 193/363/42 199/370/42 200/371/42 194/364/42
f 194/364/42 200/371/42 201/372/42 195/365/42
f 195/365/42 201/372/42 202/373/42 196/366/42
f 196/366/42 202/373/42 254/374/42 255/367/42
f 208/375/43 161/326/43 34/316/43 219/317/43
f 34/316/43 161/326/43 162/329/43 33/315/43
f 33/315/43 162/329/43 163/331/43 32/314/43
f 32/314/43 163/331/43 164/333/43 31/313/43
f 31/313/43 164/333/43 165/335/43 30/312/43
f 30/312/43 165/335/43 166/337/43 29/310/43
f 29/310/43 166/337/43 258/339/43 268/311/43
f 236/376/44 254/374/44 202/373/44 279/377/44
f 279/377/45 202/373/45 201/372/45 278/378/45
f 278/378/45 201/372/45 200/371/45 280/379/45
f 280/380/45 200/371/45 199/370/45 276/381/45
f 276/381/45 199/370/45 198/369/45 277/382/45
f 277/382/44 198/369/44 197/368/44 275/383/44
f 197/368/44 206/384/44 203/385/44 275/383/44
f 206/384/42 197/368/42 191/361/42 204/386/42
f 204/386/41 191/361/41 185/354/41 205/387/41
f 205/388/40 185/354/40 179/347/40 207/389/40
f 207/389/39 179/347/39 173/340/39 210/390/39
f 210/390/46 173/340/46 167/327/46 209/391/46
f 209/391/37 167/327/37 161/326/37 208/375/37
